<?xml version="1.0" encoding="UTF-8"?>
<svg id="Layer_1" xmlns="http://www.w3.org/2000/svg" version="1.1" viewBox="0 0 738.5 97.2">
  <!-- Generator: Adobe Illustrator 30.1.0, SVG Export Plug-In . SVG Version: 2.1.1 Build 136)  -->
  <defs>
    <style>
      .st0 {
        fill: #7ac143;
      }

      .st1 {
        fill: #00b9f2;
      }

      .st2 {
        fill: #005496;
      }
    </style>
  </defs>
  <g>
    <path class="st0" d="M91.12,68.06c5.86-14.53,4.02-31.7-6.32-44.93C74.46,9.9,58.25,3.97,42.74,6.13L51.83,0c15.66.02,30.89,8.15,39.29,22.69,8.39,14.54,7.82,31.8,0,45.37"/>
    <path class="st2" d="M45.37,0c-7.63,1.07-15.1,4.1-21.61,9.18C4.01,24.61.51,53.12,15.94,72.86l-9.85-4.81C-6.44,46.36.99,18.61,22.69,6.09,29.85,1.95,37.66,0,45.37,0"/>
    <path class="st1" d="M9.31,74.51c15.42,19.74,43.93,23.24,63.67,7.82,6.51-5.09,11.26-11.6,14.14-18.75l.76,10.94c-3.85,6.68-9.45,12.47-16.61,16.6-21.7,12.53-49.44,5.09-61.97-16.6"/>
    <path class="st0" d="M79.95,36.53c-4.37-10.28-13.95-18-25.83-19.46-11.88-1.46-23.04,3.72-29.77,12.63l1.49-7.67c7.9-7.89,19.68-11.46,31.24-8.37,11.56,3.1,19.97,12.08,22.87,22.87"/>
    <path class="st2" d="M22.59,25.28c-3.31,4.39-5.55,9.67-6.27,15.52-2.18,17.73,10.43,33.86,28.15,36.04l-7.39,2.54c-17.25-4.62-27.49-22.35-22.87-39.6,1.52-5.69,4.47-10.62,8.37-14.5"/>
    <path class="st1" d="M41.97,81.01c17.72,2.18,33.86-10.43,36.03-28.16.72-5.85-.17-11.52-2.32-16.58l5.9,5.13c1.43,5.31,1.52,11.05,0,16.74-4.63,17.25-22.36,27.49-39.6,22.87"/>
    <path class="st0" d="M58.06,26.93c-6.95-2.8-15.17-1.92-21.5,3.02-6.33,4.95-9.17,12.71-8.13,20.13l-2.94-4.35c0-7.5,3.9-14.78,10.86-18.8,6.96-4.02,15.22-3.75,21.71,0"/>
    <path class="st2" d="M25.48,48.83c.51,3.65,1.96,7.23,4.4,10.34,7.38,9.45,21.03,11.13,30.48,3.74l-2.3,4.71c-10.39,6-23.66,2.44-29.66-7.95-1.98-3.42-2.92-7.16-2.91-10.85"/>
    <path class="st1" d="M61.15,66.08c9.45-7.38,11.12-21.03,3.74-30.47-2.44-3.12-5.55-5.39-8.97-6.77l5.23-.37c3.2,1.84,5.96,4.53,7.94,7.95,5.99,10.39,2.44,23.67-7.95,29.66"/>
  </g>
  <path class="st2" d="M137.09,33.44c-.19-.96-.36-1.9-.5-2.81-.14-.91-.26-1.82-.36-2.74h-11.59v15.05h9.58c.24-1.63.53-3.12.86-4.46h4.9v14.9h-4.9c-.34-1.34-.62-2.83-.86-4.46h-9.58v15.62c1.1.1,2.18.22,3.24.36,1.06.14,2.06.34,3.02.58v4.75h-20.23v-4.75c.96-.24,1.97-.43,3.02-.58,1.05-.14,2.13-.26,3.24-.36V27.32c-1.11-.1-2.19-.22-3.24-.36-1.06-.14-2.06-.34-3.02-.58v-4.75h32.11v11.81h-5.69Z"/>
  <path class="st2" d="M186.92,69.73c-1.87.24-4.01.41-6.41.5-2.4.1-4.68.1-6.84,0,0-1.01.04-2.16.11-3.46.07-1.29.2-2.47.4-3.53l-.14-.07c-1.11,2.3-2.7,4.18-4.79,5.62-2.09,1.44-4.64,2.16-7.67,2.16-2.02,0-3.71-.3-5.08-.9-1.37-.6-2.47-1.42-3.31-2.45-.84-1.03-1.43-2.24-1.76-3.64-.34-1.39-.5-2.88-.5-4.46v-19.08c-.86-.14-1.84-.28-2.92-.4-1.08-.12-2.1-.23-3.06-.32v-4.75c1.87-.24,4.03-.41,6.46-.5,2.44-.1,4.84-.1,7.22,0v23.04c0,2.26.37,4,1.11,5.22.74,1.22,2.14,1.84,4.19,1.84,1.34,0,2.58-.33,3.72-1.01,1.15-.67,2.12-1.58,2.94-2.74.81-1.15,1.46-2.51,1.93-4.07.48-1.56.72-3.23.72-5v-11.38c-.77-.1-1.64-.2-2.63-.32-.98-.12-1.96-.23-2.92-.32v-4.75c1.92-.24,4.04-.41,6.37-.5,2.33-.1,4.62-.1,6.88,0v29.81c.86.14,1.84.28,2.92.4,1.08.12,2.1.23,3.06.32v4.75Z"/>
  <path class="st2" d="M217.08,47.19c0-2.26-.37-4-1.11-5.22-.74-1.22-2.14-1.84-4.19-1.84-1.34,0-2.57.34-3.69,1.01-1.12.67-2.1,1.58-2.94,2.74-.84,1.15-1.49,2.51-1.97,4.07-.48,1.56-.72,3.23-.72,5v11.59c.96.1,1.92.2,2.88.32.96.12,1.85.3,2.66.54v4.82h-19.51v-4.75c.96-.24,1.97-.43,3.02-.58,1.06-.14,2.14-.26,3.24-.36v-24.12c-.86-.14-1.86-.28-2.99-.4-1.13-.12-2.22-.23-3.28-.32v-4.75c2.02-.24,4.24-.41,6.68-.5,2.44-.1,4.77-.1,7,0,0,.96-.05,2.11-.15,3.46-.1,1.34-.24,2.52-.44,3.53l.14.07c1.05-2.3,2.62-4.18,4.7-5.62,2.08-1.44,4.63-2.16,7.65-2.16,2.01,0,3.71.3,5.1.9,1.39.6,2.49,1.42,3.3,2.45.81,1.03,1.4,2.24,1.76,3.64.36,1.39.54,2.88.54,4.46v19.37c1.05.1,2.09.22,3.1.36,1.01.14,1.97.34,2.88.58v4.75h-13.68v-23.04Z"/>
  <path class="st2" d="M270.72,69.66c-1.87.24-4.02.41-6.43.5s-4.71.1-6.89,0c0-.96.04-2.06.11-3.31.07-1.25.21-2.35.4-3.31h-.14c-.96,2.21-2.44,4-4.45,5.36-2.01,1.37-4.4,2.05-7.18,2.05-4.4,0-7.7-1.51-9.87-4.54-2.18-3.02-3.27-7.13-3.27-12.31,0-3.07.43-5.85,1.29-8.35.86-2.5,2.09-4.62,3.7-6.37,1.6-1.75,3.57-3.11,5.89-4.07,2.32-.96,4.92-1.44,7.79-1.44.86,0,1.73.02,2.62.07.89.05,1.81.12,2.76.22v-10.51c-.87-.14-1.86-.28-2.99-.4-1.13-.12-2.22-.23-3.28-.32v-4.75c2.02-.24,4.25-.41,6.72-.5,2.46-.1,4.88-.1,7.25,0v46.51c.86.14,1.84.28,2.92.4,1.08.12,2.1.23,3.06.32v4.75ZM257.04,40.64c-1.97-.43-3.87-.65-5.69-.65-3.07,0-5.56,1.03-7.45,3.09-1.9,2.06-2.84,5.48-2.84,10.27,0,3.59.58,6.35,1.73,8.29,1.15,1.94,2.95,2.91,5.4,2.91,1.44,0,2.7-.38,3.78-1.15,1.08-.76,2-1.76,2.77-2.98.77-1.22,1.34-2.6,1.73-4.13.38-1.53.58-3.06.58-4.6v-11.06Z"/>
  <path class="st2" d="M308.23,69.73c-1.87.24-4.01.41-6.41.5-2.4.1-4.66.1-6.77,0,0-1.15.02-2.3.07-3.46.05-1.15.14-2.21.29-3.17l-.07-.07c-.86,2.16-2.34,3.94-4.43,5.33-2.09,1.39-4.57,2.09-7.45,2.09-3.07,0-5.51-.8-7.31-2.41-1.8-1.61-2.7-3.85-2.7-6.73,0-2.06.49-3.89,1.48-5.47.98-1.58,2.4-2.92,4.25-4,1.85-1.08,4.07-1.91,6.66-2.48s5.5-.86,8.71-.86v-2.52c0-2.26-.5-3.96-1.51-5.11-1.01-1.15-2.88-1.73-5.62-1.73-2.06,0-4.03.26-5.9.79-.1.82-.22,1.67-.36,2.56-.14.89-.29,1.81-.43,2.77h-4.82v-10.15c1.78-.58,3.71-1.04,5.8-1.4,2.09-.36,4.28-.54,6.59-.54,2.74,0,5,.29,6.8.86,1.8.58,3.23,1.39,4.28,2.45,1.05,1.06,1.8,2.34,2.23,3.85.43,1.51.65,3.18.65,5v18.43c.86.14,1.84.28,2.92.4,1.08.12,2.1.23,3.06.32v4.75ZM294.55,54.1c-2.59,0-4.76.17-6.52.5-1.75.34-3.16.8-4.21,1.4-1.06.6-1.81,1.29-2.27,2.05-.46.77-.68,1.58-.68,2.45,0,1.39.43,2.48,1.3,3.28.86.79,2.06,1.19,3.6,1.19,1.29,0,2.48-.29,3.56-.87,1.08-.58,2-1.34,2.77-2.3.77-.96,1.37-2.04,1.8-3.24.43-1.2.65-2.45.65-3.74v-.72Z"/>
  <path class="st2" d="M337.75,69.01c-1.39.48-2.95.9-4.68,1.26-1.73.36-3.65.54-5.76.54-2.4,0-4.62-.3-6.67-.9-2.04-.6-3.8-1.58-5.28-2.95-1.48-1.37-2.64-3.16-3.49-5.36-.85-2.21-1.27-4.9-1.27-8.06,0-2.83.37-5.45,1.13-7.85.75-2.4,1.89-4.48,3.41-6.23,1.53-1.75,3.44-3.12,5.75-4.1,2.31-.98,5.02-1.48,8.14-1.48,1.39,0,2.84.11,4.36.32,1.51.22,2.89.52,4.14.9v10.94h-4.9c-.19-.96-.35-1.9-.47-2.81-.12-.91-.23-1.78-.32-2.59-.53-.14-1.13-.26-1.8-.36-.67-.1-1.34-.14-2.02-.14-2.98,0-5.28,1.1-6.91,3.31-1.63,2.21-2.45,5.18-2.45,8.93,0,1.73.17,3.32.5,4.79.34,1.46.9,2.71,1.69,3.74.79,1.03,1.85,1.84,3.17,2.41,1.32.58,2.96.86,4.93.86,1.39,0,2.82-.17,4.28-.5,1.46-.33,2.8-.77,4-1.3l.5,6.62Z"/>
  <path class="st2" d="M329.54,69.9c.58,1.2.96,2.41,1.15,3.64.19,1.22.06,2.44-.4,3.64-.46,1.2-1.29,2.36-2.48,3.49-1.2,1.13-2.86,2.2-4.97,3.2l-3.53-3.02c2.3-1.63,3.66-3.36,4.07-5.18.41-1.82.06-3.74-1.04-5.76h7.2Z"/>
  <path class="st2" d="M376.06,69.73c-1.87.24-4.01.41-6.41.5-2.4.1-4.66.1-6.77,0,0-1.15.02-2.3.07-3.46.05-1.15.14-2.21.29-3.17l-.07-.07c-.86,2.16-2.34,3.94-4.43,5.33-2.09,1.39-4.57,2.09-7.45,2.09-3.07,0-5.51-.8-7.31-2.41-1.8-1.61-2.7-3.85-2.7-6.73,0-2.06.49-3.89,1.48-5.47.98-1.58,2.4-2.92,4.25-4,1.85-1.08,4.07-1.91,6.66-2.48,2.59-.58,5.5-.86,8.71-.86v-2.52c0-2.26-.5-3.96-1.51-5.11-1.01-1.15-2.88-1.73-5.62-1.73-2.06,0-4.03.26-5.9.79-.1.82-.22,1.67-.36,2.56-.14.89-.29,1.81-.43,2.77h-4.82v-10.15c1.78-.58,3.71-1.04,5.79-1.4,2.09-.36,4.29-.54,6.59-.54,2.74,0,5,.29,6.8.86,1.8.58,3.23,1.39,4.28,2.45,1.06,1.06,1.8,2.34,2.23,3.85.43,1.51.65,3.18.65,5v18.43c.86.14,1.84.28,2.92.4,1.08.12,2.1.23,3.06.32v4.75ZM368.86,25.09c-.72.72-1.74,1.39-3.06,2.02-1.32.62-2.65.94-4,.94s-2.46-.18-3.35-.54c-.89-.36-1.72-.76-2.48-1.19-.77-.43-1.54-.83-2.3-1.19-.77-.36-1.68-.54-2.74-.54-.96,0-1.84.23-2.63.68-.79.46-1.53,1.02-2.2,1.69l-1.66-5.18c.96-.86,2.04-1.58,3.24-2.16,1.2-.58,2.5-.86,3.89-.86,1.25,0,2.31.18,3.2.54.89.36,1.72.77,2.48,1.22.77.46,1.54.86,2.3,1.22.77.36,1.66.54,2.66.54s1.93-.23,2.77-.68c.84-.46,1.6-1,2.27-1.62l1.58,5.11ZM362.38,54.1c-2.59,0-4.76.17-6.52.5-1.75.34-3.16.8-4.21,1.4-1.06.6-1.81,1.29-2.27,2.05s-.68,1.58-.68,2.45c0,1.39.43,2.48,1.3,3.28.86.79,2.06,1.19,3.6,1.19,1.3,0,2.48-.29,3.56-.87,1.08-.58,2-1.34,2.77-2.3.77-.96,1.37-2.04,1.8-3.24.43-1.2.65-2.45.65-3.74v-.72Z"/>
  <path class="st2" d="M412.49,51.66c0,2.74-.43,5.28-1.29,7.63-.87,2.35-2.08,4.39-3.64,6.12-1.56,1.73-3.43,3.08-5.62,4.07-2.19.98-4.6,1.48-7.24,1.48-2.5,0-4.75-.36-6.77-1.08-2.02-.72-3.74-1.81-5.18-3.28-1.44-1.46-2.54-3.34-3.31-5.62-.77-2.28-1.15-5-1.15-8.17,0-2.69.42-5.2,1.26-7.52.84-2.33,2.04-4.34,3.6-6.05,1.56-1.7,3.43-3.05,5.62-4.03,2.18-.98,4.64-1.48,7.38-1.48,2.4,0,4.6.35,6.59,1.04,1.99.7,3.71,1.76,5.15,3.2,1.44,1.44,2.57,3.29,3.38,5.54.81,2.26,1.22,4.97,1.22,8.14ZM404.57,52.12c0-3.85-.74-6.81-2.22-8.88-1.48-2.07-3.75-3.1-6.81-3.1-1.15,0-2.27.23-3.37.69-1.1.46-2.08,1.17-2.94,2.13-.86.96-1.55,2.19-2.08,3.68-.53,1.49-.79,3.27-.79,5.34,0,4.09.76,7.17,2.3,9.24,1.53,2.07,3.8,3.11,6.81,3.11,1.24,0,2.41-.24,3.51-.72,1.1-.48,2.07-1.23,2.9-2.24.84-1.01,1.49-2.29,1.97-3.83.48-1.54.72-3.35.72-5.41Z"/>
  <path class="st2" d="M430.41,70.23v-5.98l19.8-30.89c.62-.96,1.21-1.86,1.77-2.7.55-.84,1.16-1.69,1.84-2.56-1.01.05-2.23.08-3.67.11-1.44.02-3.1.04-4.97.04h-7.56c-.14,1.78-.43,3.72-.86,5.83h-5.76v-12.46h31.97v6.19l-20.95,31.9c-.43.67-.84,1.32-1.22,1.94-.38.62-.84,1.27-1.37,1.94.67-.1,1.85-.14,3.53-.14h13.54c.19-1.68.48-3.72.86-6.12h5.69v12.89h-32.62Z"/>
  <path class="st2" d="M497.95,49.21c0,1.06-.07,2.26-.22,3.6h-22.82c-.1,4.18.74,7.22,2.52,9.14,1.78,1.92,4.46,2.88,8.06,2.88,1.82,0,3.65-.2,5.47-.61,1.82-.41,3.48-.97,4.97-1.69l.72,6.12c-1.82.77-3.79,1.34-5.9,1.73-2.11.38-4.27.58-6.48.58-5.62,0-9.9-1.48-12.85-4.43-2.95-2.95-4.43-7.6-4.43-13.93,0-2.69.36-5.18,1.08-7.49.72-2.3,1.78-4.3,3.17-5.98,1.39-1.68,3.11-3,5.15-3.96,2.04-.96,4.36-1.44,6.95-1.44s4.74.41,6.59,1.22c1.85.82,3.36,1.93,4.54,3.35,1.18,1.42,2.05,3.06,2.63,4.93.58,1.87.86,3.86.86,5.98ZM490.25,47.41c.09-2.45-.51-4.39-1.8-5.83-1.3-1.44-3.1-2.16-5.4-2.16-2.16,0-3.95.72-5.36,2.16-1.42,1.44-2.29,3.38-2.63,5.83h15.19Z"/>
  <path class="st2" d="M526.6,41.29c-3.94-.67-6.82.22-8.64,2.66-1.83,2.45-2.74,6.36-2.74,11.74v8.86c1.1.1,2.18.22,3.24.36,1.05.14,2.06.34,3.02.58v4.75h-20.23v-4.75c.96-.24,1.97-.43,3.03-.58,1.05-.14,2.13-.26,3.24-.36v-24.12c-.86-.14-1.86-.28-2.99-.4-1.13-.12-2.22-.23-3.28-.32v-4.75c2.02-.24,4.24-.41,6.68-.5,2.44-.1,4.77-.1,7,0,0,1.01-.06,2.23-.18,3.67-.12,1.44-.3,2.86-.55,4.25h.07c.44-1.2.99-2.35,1.66-3.46.67-1.1,1.51-2.08,2.52-2.92,1.01-.84,2.21-1.46,3.6-1.87,1.39-.41,3.02-.54,4.9-.4l-.36,7.56Z"/>
  <path class="st2" d="M553.6,41.29c-3.94-.67-6.82.22-8.64,2.66-1.83,2.45-2.74,6.36-2.74,11.74v8.86c1.1.1,2.18.22,3.24.36,1.05.14,2.06.34,3.02.58v4.75h-20.23v-4.75c.96-.24,1.97-.43,3.02-.58,1.06-.14,2.14-.26,3.24-.36v-24.12c-.86-.14-1.86-.28-2.99-.4-1.13-.12-2.22-.23-3.28-.32v-4.75c2.02-.24,4.24-.41,6.68-.5,2.44-.1,4.77-.1,7,0,0,1.01-.06,2.23-.18,3.67-.12,1.44-.3,2.86-.55,4.25h.07c.44-1.2.99-2.35,1.66-3.46.67-1.1,1.51-2.08,2.52-2.92,1.01-.84,2.21-1.46,3.6-1.87,1.39-.41,3.02-.54,4.9-.4l-.36,7.56Z"/>
  <path class="st2" d="M586.94,49.21c0,1.06-.07,2.26-.21,3.6h-22.82c-.1,4.18.74,7.22,2.52,9.14,1.78,1.92,4.46,2.88,8.06,2.88,1.82,0,3.65-.2,5.47-.61,1.82-.41,3.48-.97,4.97-1.69l.72,6.12c-1.83.77-3.79,1.34-5.9,1.73-2.11.38-4.27.58-6.48.58-5.62,0-9.9-1.48-12.85-4.43-2.95-2.95-4.43-7.6-4.43-13.93,0-2.69.36-5.18,1.08-7.49.72-2.3,1.78-4.3,3.17-5.98,1.39-1.68,3.11-3,5.15-3.96,2.04-.96,4.36-1.44,6.95-1.44s4.74.41,6.59,1.22c1.85.82,3.36,1.93,4.54,3.35,1.18,1.42,2.05,3.06,2.63,4.93s.86,3.86.86,5.98ZM579.24,47.41c.1-2.45-.5-4.39-1.8-5.83-1.29-1.44-3.1-2.16-5.4-2.16-2.16,0-3.95.72-5.36,2.16-1.42,1.44-2.29,3.38-2.63,5.83h15.19Z"/>
  <path class="st2" d="M618.83,47.19c0-2.26-.37-4-1.11-5.22-.74-1.22-2.14-1.84-4.19-1.84-1.34,0-2.57.34-3.69,1.01-1.12.67-2.1,1.58-2.94,2.74-.84,1.15-1.49,2.51-1.97,4.07-.48,1.56-.72,3.23-.72,5v11.59c.96.1,1.92.2,2.88.32.96.12,1.85.3,2.66.54v4.82h-19.51v-4.75c.96-.24,1.97-.43,3.03-.58,1.05-.14,2.13-.26,3.24-.36v-24.12c-.86-.14-1.86-.28-2.99-.4-1.13-.12-2.22-.23-3.28-.32v-4.75c2.02-.24,4.24-.41,6.68-.5,2.44-.1,4.77-.1,7,0,0,.96-.05,2.11-.14,3.46-.1,1.34-.24,2.52-.44,3.53l.14.07c1.05-2.3,2.62-4.18,4.7-5.62,2.08-1.44,4.63-2.16,7.65-2.16,2.01,0,3.71.3,5.1.9,1.39.6,2.49,1.42,3.3,2.45.81,1.03,1.4,2.24,1.76,3.64.36,1.39.54,2.88.54,4.46v19.37c1.05.1,2.09.22,3.1.36,1.01.14,1.97.34,2.88.58v4.75h-13.68v-23.04Z"/>
  <path class="st2" d="M662.61,47.19c0-2.26-.37-4-1.11-5.22-.74-1.22-2.14-1.84-4.19-1.84-1.34,0-2.57.34-3.69,1.01-1.12.67-2.1,1.58-2.94,2.74-.84,1.15-1.49,2.51-1.97,4.07-.48,1.56-.72,3.23-.72,5v11.59c.96.1,1.92.2,2.88.32.96.12,1.85.3,2.66.54v4.82h-19.51v-4.75c.96-.24,1.97-.43,3.02-.58,1.05-.14,2.13-.26,3.24-.36v-24.12c-.87-.14-1.86-.28-2.99-.4-1.13-.12-2.22-.23-3.28-.32v-4.75c2.02-.24,4.24-.41,6.68-.5,2.44-.1,4.77-.1,7,0,0,.96-.05,2.11-.15,3.46-.1,1.34-.24,2.52-.44,3.53l.14.07c1.05-2.3,2.62-4.18,4.7-5.62,2.08-1.44,4.63-2.16,7.65-2.16,2.01,0,3.71.3,5.1.9,1.39.6,2.49,1.42,3.3,2.45.81,1.03,1.4,2.24,1.76,3.64.36,1.39.54,2.88.54,4.46v19.37c1.05.1,2.09.22,3.1.36,1.01.14,1.97.34,2.88.58v4.75h-13.68v-23.04Z"/>
  <path class="st2" d="M709.48,49.21c0,1.06-.07,2.26-.21,3.6h-22.82c-.1,4.18.74,7.22,2.52,9.14,1.78,1.92,4.46,2.88,8.06,2.88,1.82,0,3.65-.2,5.47-.61,1.82-.41,3.48-.97,4.97-1.69l.72,6.12c-1.83.77-3.79,1.34-5.9,1.73-2.11.38-4.27.58-6.48.58-5.62,0-9.9-1.48-12.85-4.43-2.95-2.95-4.43-7.6-4.43-13.93,0-2.69.36-5.18,1.08-7.49.72-2.3,1.78-4.3,3.17-5.98,1.39-1.68,3.11-3,5.15-3.96,2.04-.96,4.36-1.44,6.95-1.44s4.74.41,6.59,1.22c1.85.82,3.36,1.93,4.54,3.35,1.18,1.42,2.05,3.06,2.63,4.93.58,1.87.86,3.86.86,5.98ZM701.78,47.41c.1-2.45-.5-4.39-1.8-5.83-1.29-1.44-3.1-2.16-5.4-2.16-2.16,0-3.95.72-5.36,2.16-1.42,1.44-2.29,3.38-2.63,5.83h15.19Z"/>
  <path class="st2" d="M738.14,41.29c-3.94-.67-6.82.22-8.64,2.66-1.82,2.45-2.74,6.36-2.74,11.74v8.86c1.1.1,2.18.22,3.24.36,1.05.14,2.06.34,3.02.58v4.75h-20.23v-4.75c.96-.24,1.97-.43,3.03-.58,1.05-.14,2.13-.26,3.24-.36v-24.12c-.87-.14-1.86-.28-2.99-.4-1.13-.12-2.22-.23-3.28-.32v-4.75c2.02-.24,4.24-.41,6.68-.5,2.44-.1,4.77-.1,7,0,0,1.01-.06,2.23-.18,3.67-.12,1.44-.3,2.86-.55,4.25h.07c.44-1.2.99-2.35,1.66-3.46.67-1.1,1.51-2.08,2.52-2.92,1.01-.84,2.21-1.46,3.6-1.87,1.39-.41,3.02-.54,4.9-.4l-.36,7.56Z"/>
</svg>